<?xml version="1.0" encoding="UTF-8" standalone="no"?><!DOCTYPE svg PUBLIC "-//W3C//DTD SVG 1.1//EN" "http://www.w3.org/Graphics/SVG/1.1/DTD/svg11.dtd"><svg width="100%" height="100%" viewBox="0 0 888 486" version="1.1" xmlns="http://www.w3.org/2000/svg" xmlns:xlink="http://www.w3.org/1999/xlink" xml:space="preserve" xmlns:serif="http://www.serif.com/" style="fill-rule:evenodd;clip-rule:evenodd;stroke-linejoin:round;stroke-miterlimit:2;"><g id="Bottle">
<!-- About svg group animations: https://stackoverflow.com/questions/54656099/how-do-i-animate-a-group-of-svgs-rather-than-only-animating-one-at-a-time -->
 <animateTransform attributeType="XML" attributeName="transform" type="translate" values="0, -1000; 0, 0" repeatCount="1" dur="1s"/>
<path d="M119.412,253.045l-28.419,-0c-2.067,-0 -3.767,1.701 -3.767,3.768l-0,12.474c-0,2.067 1.7,3.767 3.767,3.767l4.71,0l-0,18.691l19,-0l-0,-18.691l4.709,0c2.067,0 3.768,-1.7 3.768,-3.767l-0,-12.474c-0,-2.067 -1.701,-3.768 -3.768,-3.768Z" style="fill:#399759;fill-rule:nonzero;"/><path d="M147.877,367.206c-17.402,-25.464 -26.302,-55.795 -25.418,-86.625c0.032,-1.461 -0.979,-2.754 -2.406,-3.075l0,-5.39l-30.014,0l0,5.315l-0.413,0c-1.688,0.003 -3.076,1.392 -3.076,3.08c0,0.076 0.003,0.152 0.009,0.228c2.364,32.962 -5.62,62.521 -23.954,88.677c-1.055,1.503 -1.594,3.309 -1.536,5.144l3.282,101.518c0.163,4.677 4.034,8.445 8.713,8.482l67.887,-0c4.735,-0.039 8.632,-3.897 8.718,-8.632l1.265,-98.565c0.037,-3.618 -1.029,-7.162 -3.057,-10.157Z" style="fill:#354039;fill-rule:nonzero;"/><path d="M113.488,257.109c-0,4.46 -3.67,8.129 -8.129,8.129c-4.459,0 -8.129,-3.669 -8.129,-8.129" style="fill-opacity:0.2;fill-rule:nonzero;"/><path d="M137.13,400.927l-8.221,-0c-1.614,-10.477 -10.723,-18.29 -21.324,-18.29c-10.601,0 -19.71,7.813 -21.325,18.29l-8.221,-0c-3.328,-0 -6.066,2.739 -6.066,6.067c-0,0.308 0.023,0.617 0.07,0.922l8.93,58.041l51.274,0l10.846,-57.845c0.069,-0.369 0.104,-0.743 0.104,-1.118c-0,-3.328 -2.739,-6.067 -6.067,-6.067Z" style="fill:#399759;fill-rule:nonzero;"/></g><g id="Drink">
 <animateTransform attributeType="XML" attributeName="transform" type="translate" values="
   0, -1500;
   0, 0"
         repeatCount="1" dur="1.1s"/>
<path d="M827.952,307.634l-1.972,78.814l-2.442,97.733l-83.124,-0l-2.862,-114.506l-1.552,-62.041l91.952,-0Z" style="fill:#e6e6e6;fill-rule:nonzero;"/><rect x="775.723" y="265.704" width="11.77" height="155.95" style="fill:#399759;"/><path d="M822.067,367.02l-2.226,112.02l-75.767,-0l-2.608,-131.244c13.792,-3.874 28.592,-1.838 40.827,5.615c12.659,7.488 26.88,11.518 39.774,13.609Z" style="fill:#354039;fill-rule:nonzero;"/><rect x="752.031" y="379.63" width="10.8" height="10.8" style="fill:#e6e6e6;"/><rect x="759.387" y="357.562" width="10.8" height="10.8" style="fill:#e6e6e6;"/><path d="M793.378,372.84l-8.675,-6.434l-6.433,8.675l8.674,6.433l6.434,-8.674Z" style="fill:#e6e6e6;"/><path d="M812.891,391.975l-8.675,-6.433l-6.433,8.674l8.674,6.434l6.434,-8.675Z" style="fill:#e6e6e6;"/><path d="M779.788,403.009l-8.674,-6.433l-6.434,8.675l8.675,6.433l6.433,-8.675Z" style="fill:#e6e6e6;"/><circle cx="805.148" cy="351.035" r="2.207" style="fill:#354039;"/><circle cx="760.275" cy="336.323" r="2.207" style="fill:#354039;"/><circle cx="797.792" cy="320.875" r="2.207" style="fill:#354039;"/></g><g id="Plate"><circle cx="444.508" cy="241.754" r="241.754" style="fill:#399759;"/><path d="M444.508,418.211c-96.8,-0.001 -176.455,-79.655 -176.455,-176.456c0,-96.801 79.655,-176.456 176.456,-176.456c96.801,0 176.456,79.655 176.456,176.456c0,46.781 -18.603,91.694 -51.683,124.773c-33.006,33.188 -77.968,51.811 -124.774,51.683Zm0,-342.031c-91.298,-0 -165.574,74.276 -165.574,165.574c-0,91.298 74.276,165.574 165.574,165.574c91.298,0 165.574,-74.276 165.574,-165.574c0,-91.298 -74.276,-165.574 -165.574,-165.574Z" style="fill-opacity:0.2;fill-rule:nonzero;"/><circle cx="444.508" cy="241.754" r="171.016" style="fill:#354039;"/><path d="M317.327,173.372c-1.56,-3.056 -2.373,-6.438 -2.373,-9.87c-0,-11.906 9.797,-21.704 21.704,-21.704c8.159,0 15.656,4.601 19.351,11.876l48.316,94.878c1.56,3.056 2.374,6.439 2.374,9.87c-0,11.906 -9.798,21.704 -21.704,21.704c-8.159,-0 -15.656,-4.601 -19.351,-11.876l-48.317,-94.878Z" style="fill:#ff6584;fill-rule:nonzero;"/><path d="M322.717,183.954l-2.23,-4.379c11.129,-8.647 24.197,-15.007 38.681,-19.698l2.23,4.379c-15.676,3.265 -29.012,9.305 -38.681,19.698Z" style="fill-opacity:0.2;fill-rule:nonzero;"/><path d="M333.123,204.39l-2.23,-4.379c11.129,-8.648 24.198,-15.007 38.681,-19.698l2.23,4.379c-15.675,3.264 -29.011,9.305 -38.681,19.698Z" style="fill-opacity:0.2;fill-rule:nonzero;"/><path d="M343.53,224.825l-2.23,-4.379c11.129,-8.647 24.198,-15.007 38.681,-19.698l2.23,4.379c-15.676,3.264 -29.012,9.305 -38.681,19.698Z" style="fill-opacity:0.2;fill-rule:nonzero;"/><path d="M353.936,245.261l-2.23,-4.38c11.129,-8.647 24.198,-15.007 38.682,-19.698l2.23,4.379c-15.676,3.265 -29.012,9.305 -38.682,19.699Z" style="fill-opacity:0.2;fill-rule:nonzero;"/><path d="M364.343,265.696l-2.23,-4.379c11.129,-8.648 24.198,-15.007 38.681,-19.698l2.23,4.379c-15.675,3.264 -29.011,9.305 -38.681,19.698Z" style="fill-opacity:0.2;fill-rule:nonzero;"/><path d="M281.079,208.891c-1.559,-3.055 -2.373,-6.437 -2.373,-9.868c0,-11.906 9.798,-21.704 21.704,-21.704c8.159,0 15.655,4.6 19.35,11.874l48.317,94.878c1.546,3.045 2.353,6.413 2.353,9.829c-0,11.906 -9.798,21.704 -21.704,21.704c-8.143,-0 -15.628,-4.583 -19.331,-11.835l-48.316,-94.878Z" style="fill:#ff6584;fill-rule:nonzero;"/><path d="M286.468,219.473l-2.23,-4.379c11.129,-8.647 24.198,-15.007 38.681,-19.698l2.23,4.379c-15.675,3.265 -29.011,9.305 -38.681,19.698Z" style="fill-opacity:0.2;fill-rule:nonzero;"/><path d="M296.875,239.909l-2.23,-4.379c11.129,-8.648 24.198,-15.007 38.681,-19.698l2.23,4.379c-15.675,3.264 -29.012,9.305 -38.681,19.698Z" style="fill-opacity:0.2;fill-rule:nonzero;"/><path d="M307.281,260.344l-2.23,-4.379c11.13,-8.647 24.198,-15.007 38.682,-19.698l2.23,4.379c-15.676,3.264 -29.012,9.305 -38.682,19.698Z" style="fill-opacity:0.2;fill-rule:nonzero;"/><path d="M317.688,280.78l-2.23,-4.38c11.129,-8.647 24.198,-15.007 38.681,-19.698l2.23,4.379c-15.675,3.265 -29.011,9.306 -38.681,19.698Z" style="fill-opacity:0.2;fill-rule:nonzero;"/><path d="M328.095,301.215l-2.23,-4.379c11.129,-8.647 24.197,-15.007 38.681,-19.698l2.23,4.379c-15.676,3.264 -29.012,9.305 -38.681,19.698Z" style="fill-opacity:0.2;fill-rule:nonzero;"/><path d="M558.778,247.195l0.152,0.001c10.628,0.089 20.277,-6.375 24.239,-16.237c3.991,-10.086 6.002,-20.847 5.924,-31.694c-0.272,-45.91 -37.623,-83.575 -83.53,-84.21c-0.395,-0.005 -0.791,-0.008 -1.186,-0.008c-46.489,-0 -84.744,38.255 -84.744,84.744c0,33.557 19.932,64.085 50.653,77.584c9.662,4.278 21.021,2.172 28.506,-5.285c15.872,-15.956 37.48,-24.923 59.986,-24.895Z" style="fill:#e6e6e6;fill-rule:nonzero;"/><circle cx="515.246" cy="193.559" r="27.984" style="fill:#f9a825;"/><circle cx="454.426" cy="187.115" r="3.297" style="fill:#354039;"/><circle cx="345.598" cy="190.225" r="3.297" style="fill:#354039;"/><circle cx="471.996" cy="152.949" r="3.297" style="fill:#354039;"/><circle cx="471.902" cy="247.973" r="3.297" style="fill:#354039;"/><circle cx="537.199" cy="146.141" r="3.297" style="fill:#354039;"/><circle cx="324.207" cy="236.313" r="3.297" style="fill:#354039;"/><circle cx="348.305" cy="283.731" r="3.297" style="fill:#354039;"/><circle cx="499.7" cy="289.949" r="12.438" style="fill:#ff6584;"/><path d="M509.028,290.727c-0,5.117 -4.211,9.328 -9.328,9.328c-5.118,-0 -9.329,-4.211 -9.329,-9.328" style="fill-opacity:0.2;fill-rule:nonzero;"/><path d="M490.371,289.172c0,-5.117 4.211,-9.328 9.329,-9.328c5.117,-0 9.328,4.211 9.328,9.328" style="fill-opacity:0.2;fill-rule:nonzero;"/><ellipse cx="495.035" cy="285.674" rx="0.777" ry="1.166" style="fill:#ff6584;"/><ellipse cx="499.7" cy="284.119" rx="0.777" ry="1.166" style="fill:#ff6584;"/><ellipse cx="499.7" cy="294.225" rx="0.777" ry="1.166" style="fill:#ff6584;"/><ellipse cx="504.364" cy="288.006" rx="0.777" ry="1.166" style="fill:#ff6584;"/><ellipse cx="503.586" cy="296.557" rx="0.777" ry="1.166" style="fill:#ff6584;"/><ellipse cx="494.258" cy="292.67" rx="0.777" ry="1.166" style="fill:#ff6584;"/><circle cx="524.575" cy="256.524" r="12.438" style="fill:#ff6584;"/><path d="M533.903,257.301c-0,5.117 -4.211,9.328 -9.328,9.328c-5.118,0 -9.329,-4.211 -9.329,-9.328" style="fill-opacity:0.2;fill-rule:nonzero;"/><path d="M515.246,255.746c0,-5.117 4.211,-9.328 9.329,-9.328c5.117,0 9.328,4.211 9.328,9.328" style="fill-opacity:0.2;fill-rule:nonzero;"/><ellipse cx="519.91" cy="252.248" rx="0.777" ry="1.166" style="fill:#ff6584;"/><ellipse cx="524.575" cy="250.693" rx="0.777" ry="1.166" style="fill:#ff6584;"/><ellipse cx="524.575" cy="260.799" rx="0.777" ry="1.166" style="fill:#ff6584;"/><ellipse cx="529.239" cy="254.58" rx="0.777" ry="1.166" style="fill:#ff6584;"/><ellipse cx="528.461" cy="263.131" rx="0.777" ry="1.166" style="fill:#ff6584;"/><ellipse cx="519.133" cy="259.244" rx="0.777" ry="1.166" style="fill:#ff6584;"/><circle cx="549.45" cy="273.625" r="12.438" style="fill:#399759;"/><path d="M558.778,274.403c-0,5.117 -4.211,9.328 -9.328,9.328c-5.118,-0 -9.329,-4.211 -9.329,-9.328" style="fill-opacity:0.2;fill-rule:nonzero;"/><path d="M540.121,272.848c0,-5.117 4.211,-9.328 9.329,-9.328c5.117,-0 9.328,4.211 9.328,9.328" style="fill-opacity:0.2;fill-rule:nonzero;"/><ellipse cx="544.785" cy="269.35" rx="0.777" ry="1.166" style="fill:#399759;"/><ellipse cx="549.45" cy="267.795" rx="0.777" ry="1.166" style="fill:#399759;"/><ellipse cx="549.45" cy="277.901" rx="0.777" ry="1.166" style="fill:#399759;"/><ellipse cx="554.114" cy="271.682" rx="0.777" ry="1.166" style="fill:#399759;"/><ellipse cx="553.336" cy="280.233" rx="0.777" ry="1.166" style="fill:#399759;"/><ellipse cx="544.008" cy="276.346" rx="0.777" ry="1.166" style="fill:#399759;"/><circle cx="487.262" cy="275.18" r="12.438" style="fill:#399759;"/><path d="M496.59,275.957c0,5.117 -4.211,9.328 -9.328,9.328c-5.117,0 -9.328,-4.211 -9.328,-9.328" style="fill-opacity:0.2;fill-rule:nonzero;"/><path d="M477.934,274.403c-0,-5.118 4.211,-9.329 9.328,-9.329c5.117,0 9.328,4.211 9.328,9.329" style="fill-opacity:0.2;fill-rule:nonzero;"/><ellipse cx="482.598" cy="270.904" rx="0.777" ry="1.166" style="fill:#399759;"/><ellipse cx="487.262" cy="269.35" rx="0.777" ry="1.166" style="fill:#399759;"/><ellipse cx="487.262" cy="279.455" rx="0.777" ry="1.166" style="fill:#399759;"/><ellipse cx="491.926" cy="273.236" rx="0.777" ry="1.166" style="fill:#399759;"/><ellipse cx="491.149" cy="281.787" rx="0.777" ry="1.166" style="fill:#399759;"/><ellipse cx="481.821" cy="277.901" rx="0.777" ry="1.166" style="fill:#399759;"/><circle cx="515.246" cy="280.621" r="12.438" style="fill:#399759;"/><path d="M524.575,281.399c-0,5.117 -4.211,9.328 -9.329,9.328c-5.117,-0 -9.328,-4.211 -9.328,-9.328" style="fill-opacity:0.2;fill-rule:nonzero;"/><path d="M505.918,279.844c0,-5.117 4.211,-9.328 9.328,-9.328c5.118,-0 9.329,4.211 9.329,9.328" style="fill-opacity:0.2;fill-rule:nonzero;"/><ellipse cx="510.582" cy="276.346" rx="0.777" ry="1.166" style="fill:#399759;"/><ellipse cx="515.246" cy="274.791" rx="0.777" ry="1.166" style="fill:#399759;"/><ellipse cx="515.246" cy="284.897" rx="0.777" ry="1.166" style="fill:#399759;"/><ellipse cx="519.91" cy="278.678" rx="0.777" ry="1.166" style="fill:#399759;"/><ellipse cx="519.133" cy="287.229" rx="0.777" ry="1.166" style="fill:#399759;"/><ellipse cx="509.805" cy="283.342" rx="0.777" ry="1.166" style="fill:#399759;"/><circle cx="534.68" cy="293.836" r="12.438" style="fill:#ff6584;"/><path d="M544.008,294.613c0,5.118 -4.211,9.329 -9.328,9.329c-5.117,-0 -9.328,-4.211 -9.328,-9.329" style="fill-opacity:0.2;fill-rule:nonzero;"/><path d="M525.352,293.059c-0,-5.118 4.211,-9.328 9.328,-9.328c5.117,-0 9.328,4.21 9.328,9.328" style="fill-opacity:0.2;fill-rule:nonzero;"/><ellipse cx="530.016" cy="289.561" rx="0.777" ry="1.166" style="fill:#ff6584;"/><ellipse cx="534.68" cy="288.006" rx="0.777" ry="1.166" style="fill:#ff6584;"/><ellipse cx="534.68" cy="298.111" rx="0.777" ry="1.166" style="fill:#ff6584;"/><ellipse cx="539.344" cy="291.893" rx="0.777" ry="1.166" style="fill:#ff6584;"/><ellipse cx="538.567" cy="300.443" rx="0.777" ry="1.166" style="fill:#ff6584;"/><ellipse cx="529.239" cy="296.557" rx="0.777" ry="1.166" style="fill:#ff6584;"/><circle cx="374.734" cy="246.418" r="3.297" style="fill:#354039;"/><path d="M464.345,366.08l-79.175,-21.957l3.033,-11.266l79.175,21.958l-3.033,11.265Z" style="fill:#f9a825;fill-rule:nonzero;"/><path d="M452.738,362.315c-27.112,5.19 -54.965,5.19 -82.078,-0l0,-11.678c27.174,4.503 54.904,4.503 82.078,-0l0,11.678Z" style="fill:#f9a825;fill-rule:nonzero;"/><path d="M461.176,327.28c-27.113,5.19 -54.965,5.19 -82.078,0l0,-11.678c27.174,4.503 54.904,4.503 82.078,-0l-0,11.678Z" style="fill:#f9a825;fill-rule:nonzero;"/><path d="M489.558,341.294c-27.113,5.19 -54.965,5.19 -82.078,-0l0,-11.678c27.174,4.503 54.904,4.503 82.078,-0l0,11.678Z" style="fill:#f9a825;fill-rule:nonzero;"/><path d="M496.462,354.529c-27.113,5.191 -54.965,5.191 -82.078,0l0,-11.678c27.174,4.504 54.904,4.504 82.078,0l-0,11.678Z" style="fill:#f9a825;fill-rule:nonzero;"/><path d="M520.531,371.824l-80.977,13.602l-1.878,-11.522l80.976,-13.602l1.879,11.522Z" style="fill:#f9a825;fill-rule:nonzero;"/><path d="M508.435,373.321c-22.45,16.183 -47.754,27.985 -74.58,34.785l-4.805,-10.612c26.592,-7.446 51.786,-19.196 74.58,-34.784l4.805,10.611Z" style="fill:#f9a825;fill-rule:nonzero;"/><path d="M501.689,337.911c-22.45,16.183 -47.754,27.984 -74.58,34.784l-4.805,-10.611c26.592,-7.446 51.786,-19.197 74.58,-34.785l4.805,10.612Z" style="fill:#f9a825;fill-rule:nonzero;"/><path d="M533.243,338.616c-22.45,16.183 -47.753,27.985 -74.58,34.785l-4.804,-10.612c26.592,-7.446 51.786,-19.196 74.58,-34.784l4.804,10.611Z" style="fill:#f9a825;fill-rule:nonzero;"/><path d="M544.962,347.717c-22.451,16.183 -47.754,27.984 -74.581,34.784l-4.804,-10.611c26.592,-7.446 51.786,-19.197 74.58,-34.785l4.805,10.612Z" style="fill:#f9a825;fill-rule:nonzero;"/><rect x="442.953" y="324.93" width="3.887" height="3.887" style="fill:#00bf71;"/><rect x="454.614" y="392.559" width="3.887" height="3.887" style="fill:#00bf71;"/><rect x="392.426" y="324.93" width="3.887" height="3.887" style="fill:#00bf71;"/><rect x="482.598" y="373.125" width="3.887" height="3.887" style="fill:#00bf71;"/><rect x="484.93" y="350.582" width="3.887" height="3.887" style="fill:#00bf71;"/><path d="M424.701,339.94l-4.503,-3.055l-1.746,2.573l4.503,3.055l1.746,-2.573Z" style="fill:#00bf71;"/><path d="M470.564,348.491l-4.503,-3.055l-1.746,2.573l4.503,3.055l1.746,-2.573Z" style="fill:#00bf71;"/><path d="M414.595,363.261l-4.503,-3.055l-1.745,2.573l4.502,3.055l1.746,-2.573Z" style="fill:#00bf71;"/><path d="M443.101,363.035l3.055,-4.503l-2.573,-1.746l-3.055,4.503l2.573,1.746Z" style="fill:#00bf71;"/><path d="M464.089,368.476l3.055,-4.503l-2.573,-1.746l-3.055,4.503l2.573,1.746Z" style="fill:#00bf71;"/><path d="M520.063,349.819l3.055,-4.503l-2.573,-1.746l-3.055,4.503l2.573,1.746Z" style="fill:#00bf71;"/></g><g id="Line"><rect x="0" y="483.248" width="888" height="2.241" style="fill:#3f3d56;"/></g></svg>