<?xml version="1.0" encoding="UTF-8" standalone="no"?><!DOCTYPE svg PUBLIC "-//W3C//DTD SVG 1.1//EN" "http://www.w3.org/Graphics/SVG/1.1/DTD/svg11.dtd"><svg width="100%" height="100%" viewBox="0 0 904 658" version="1.1" xmlns="http://www.w3.org/2000/svg" xmlns:xlink="http://www.w3.org/1999/xlink" xml:space="preserve" xmlns:serif="http://www.serif.com/" style="fill-rule:evenodd;clip-rule:evenodd;stroke-miterlimit:10;"><g id="Big-flower"><ellipse cx="63.87" cy="514.57" rx="45" ry="16" style="fill-opacity:0.1;"/><path d="M63.89,514.69c-0,0 25.69,-87.12 -4.8,-151.32c-12.8,-26.93 -17,-57.15 -11.13,-86.37c2.83,-13.859 6.924,-27.429 12.23,-40.54" style="fill:none;fill-rule:nonzero;stroke:#535461;stroke-width:2px;"/><path d="M41.22,195.91c0,10.68 19.34,41.66 19.34,41.66c0,0 19.33,-31 19.33,-41.66c-0,-10.61 -8.73,-19.34 -19.34,-19.34c-10.61,0 -19.34,8.73 -19.34,19.34l0.01,-0Z" style="fill:#399759;fill-rule:nonzero;"/><path d="M9.25,255.08c5.81,9 38.88,24.46 38.88,24.46c-0,-0 -0.6,-36.52 -6.41,-45.48c-3.598,-5.285 -9.593,-8.455 -15.986,-8.455c-10.61,0 -19.34,8.731 -19.34,19.34c0,3.57 0.989,7.072 2.856,10.115l0,0.02Z" style="fill:#399759;fill-rule:nonzero;"/><path d="M10.64,356.2c9.54,4.81 45.91,1.49 45.91,1.49c-0,0 -19,-31.22 -28.49,-36c-2.701,-1.362 -5.685,-2.072 -8.71,-2.072c-10.611,-0 -19.342,8.731 -19.342,19.342c-0,7.291 4.122,13.987 10.632,17.27l-0,-0.03Z" style="fill:#399759;fill-rule:nonzero;"/><path d="M28.89,432.47c8.59,6.35 45,9.22 45,9.22c-0,-0 -13.4,-34 -22,-40.32c-3.328,-2.461 -7.36,-3.79 -11.5,-3.79c-10.61,-0 -19.34,8.73 -19.34,19.34c-0,6.129 2.913,11.906 7.84,15.55Z" style="fill:#399759;fill-rule:nonzero;"/><path d="M88.74,281.57c-7.66,7.44 -43.36,15.15 -43.36,15.15c0,0 8.74,-35.46 16.4,-42.9c3.613,-3.515 8.459,-5.484 13.5,-5.484c10.62,0 19.359,8.739 19.359,19.359c-0,5.224 -2.115,10.232 -5.859,13.875l-0.04,0Z" style="fill:#399759;fill-rule:nonzero;"/><path d="M108.99,371.08c-9.54,4.81 -45.91,1.49 -45.91,1.49c0,0 19,-31.22 28.49,-36c2.701,-1.362 5.685,-2.072 8.71,-2.072c10.611,-0 19.342,8.731 19.342,19.342c0,7.291 -4.122,13.987 -10.632,17.27l0,-0.03Z" style="fill:#399759;fill-rule:nonzero;"/><path d="M116.74,460.74c-8.59,6.35 -45,9.22 -45,9.22c0,-0 13.4,-34 22,-40.32c3.328,-2.461 7.36,-3.79 11.5,-3.79c10.61,-0 19.34,8.73 19.34,19.34c0,6.129 -2.913,11.906 -7.84,15.55Z" style="fill:#399759;fill-rule:nonzero;"/></g><g id="Small-flower"><ellipse cx="790.85" cy="580.72" rx="45" ry="16" style="fill-opacity:0.1;"/><path d="M789.03,582.99c0,0 12,-40.84 -2.26,-70.9c-6.072,-12.568 -7.904,-26.773 -5.22,-40.47c1.326,-6.495 3.244,-12.855 5.73,-19" style="fill:none;fill-rule:nonzero;stroke:#535461;stroke-width:2px;"/><path d="M778.4,433.63c0,5 9.06,19.52 9.06,19.52c0,-0 9.06,-14.51 9.06,-19.52c-0,-4.973 -4.092,-9.065 -9.065,-9.065c-4.973,0 -9.065,4.092 -9.065,9.065l0.01,-0Z" style="fill:#399759;fill-rule:nonzero;"/><path d="M763.42,461.36c2.72,4.2 18.22,11.46 18.22,11.46c0,0 -0.28,-17.11 -3,-21.31c-1.668,-2.576 -4.536,-4.135 -7.605,-4.135c-4.97,-0 -9.06,4.09 -9.06,9.06c-0,1.747 0.505,3.458 1.455,4.925l-0.01,-0Z" style="fill:#399759;fill-rule:nonzero;"/><path d="M764.07,508.73c4.47,2.25 21.51,0.7 21.51,0.7c-0,0 -8.88,-14.63 -13.35,-16.88c-1.265,-0.638 -2.663,-0.971 -4.08,-0.971c-4.97,0 -9.061,4.091 -9.061,9.061c0,3.415 1.932,6.552 4.981,8.09Z" style="fill:#399759;fill-rule:nonzero;"/><path d="M772.64,544.47c4,3 21.08,4.32 21.08,4.32c0,-0 -6.28,-15.92 -10.3,-18.89c-1.56,-1.154 -3.45,-1.777 -5.39,-1.777c-4.971,-0 -9.062,4.091 -9.062,9.062c-0,2.871 1.364,5.577 3.672,7.285Z" style="fill:#399759;fill-rule:nonzero;"/><path d="M800.66,473.79c-3.59,3.49 -20.32,7.1 -20.32,7.1c0,0 4.1,-16.61 7.69,-20.1c1.691,-1.643 3.958,-2.563 6.315,-2.563c4.972,0 9.063,4.091 9.063,9.063c-0,2.448 -0.992,4.794 -2.748,6.5Z" style="fill:#399759;fill-rule:nonzero;"/><path d="M810.15,515.7c-4.47,2.25 -21.51,0.7 -21.51,0.7c0,0 8.88,-14.63 13.35,-16.83c1.265,-0.638 2.663,-0.971 4.08,-0.971c4.97,0 9.061,4.091 9.061,9.061c-0,3.415 -1.932,6.552 -4.981,8.09l-0,-0.05Z" style="fill:#399759;fill-rule:nonzero;"/><path d="M813.78,557.71c-4,3 -21.08,4.32 -21.08,4.32c0,-0 6.28,-15.92 10.3,-18.89c1.56,-1.154 3.45,-1.777 5.39,-1.777c4.971,-0 9.062,4.091 9.062,9.062c0,2.871 -1.364,5.577 -3.672,7.285Z" style="fill:#399759;fill-rule:nonzero;"/></g><path d="M532.89,18.43c-68.48,26.45 -142.71,27.68 -211.66,2.78c-97.72,-35.28 -225.34,-44.31 -272.63,117.36c-80.71,276.21 84.41,374.8 84.41,374.8c-0,-0 115.28,25.84 179.11,72.53c90.67,66.32 201.71,88.49 306.31,57.39c66.89,-19.89 124.22,-52.52 140.61,-105.91c45.84,-149.32 16.74,-239.07 99.7,-278.44c82.96,-39.37 36.8,-185.22 -22.2,-188.53c-59,-3.31 -198,30.52 -241,-36.77c-15.33,-23.89 -38.78,-24.44 -62.65,-15.21Z" style="fill-opacity:0.1;fill-rule:nonzero;"/><path d="M379.15,299.79l-55.73,-7.22c-2.26,-0.29 -4,-1.15 -3.94,-1.9c0.1,-0.75 2,-1.1 4.31,-0.77l55.61,8.05c1.53,0.22 2.69,0.8 2.62,1.31c-0.07,0.48 -1.35,0.73 -2.87,0.53Z" style="fill:#399759;fill-rule:nonzero;"/><path d="M379.5,300.74l-55.9,-5.78c-2.27,-0.23 -4.2,0.19 -4.27,0.94c-0.07,0.75 1.74,1.54 4,1.74l56,5c1.54,0.14 2.8,-0.16 2.85,-0.67c0.04,-0.54 -1.15,-1.07 -2.68,-1.23Z" style="fill:#399759;fill-rule:nonzero;"/><path d="M463.36,342.79l55.72,-7.22c2.26,-0.29 4,-1.15 3.94,-1.9c-0.1,-0.75 -2,-1.1 -4.31,-0.77l-55.61,8.05c-1.53,0.22 -2.69,0.8 -2.62,1.31c0.07,0.48 1.35,0.73 2.88,0.53Z" style="fill:#399759;fill-rule:nonzero;"/><path d="M463,343.74l55.9,-5.78c2.27,-0.23 4.2,0.19 4.27,0.94c0.07,0.75 -1.74,1.54 -4,1.74l-56,5c-1.54,0.14 -2.8,-0.16 -2.85,-0.67c-0.04,-0.54 1.15,-1.07 2.68,-1.23Z" style="fill:#399759;fill-rule:nonzero;"/><g id="Table"><rect x="265.44" y="402.64" width="13.59" height="194.86" style="fill:#40414d;"/><rect x="562.26" y="402.64" width="13.59" height="194.86" style="fill:#40414d;"/><path d="M260.25,386.78l314,-0c12.069,-0 22,9.931 22,22l0,2.92l-358,-0l0,-2.92c0,-12.069 9.931,-22 22,-22Z" style="fill:#dfe6f5;fill-rule:nonzero;"/><path d="M259.25,386.78l314,-0c12.069,-0 22,9.931 22,22l0,2.92l-358,-0l0,-2.92c0,-12.069 9.931,-22 22,-22Z" style="fill-opacity:0.1;fill-rule:nonzero;"/><path d="M260.25,382.24l314,0c12.069,0 22,9.931 22,22l0,2.92l-358,0l0,-2.92c0,-12.069 9.931,-22 22,-22Z" style="fill:#dfe6f5;fill-rule:nonzero;"/><path d="M569.06,564.64l-0,-13.59l-294.56,-0l-0,13.59l294.56,-0Z" style="fill:#40414d;"/></g><g id="pasta"><circle cx="417.25" cy="339.19" r="27.19" style="fill:#ffd77c;stroke:#ffab50;stroke-width:1px;"/><circle cx="417.25" cy="339.19" r="21.55" style="fill:#ffd77c;stroke:#ffab50;stroke-width:1px;"/><circle cx="417.25" cy="339.19" r="16.42" style="fill:#ffd77c;stroke:#ffab50;stroke-width:1px;"/><circle cx="417.25" cy="339.19" r="9.23" style="fill:#ffd77c;stroke:#ffab50;stroke-width:1px;"/><circle cx="401.39" cy="353.92" r="27.19" style="fill:#ffd77c;stroke:#ffab50;stroke-width:1px;"/><circle cx="401.39" cy="353.92" r="21.55" style="fill:#ffd77c;stroke:#ffab50;stroke-width:1px;"/><circle cx="401.39" cy="353.92" r="16.42" style="fill:#ffd77c;stroke:#ffab50;stroke-width:1px;"/><circle cx="401.39" cy="353.92" r="9.23" style="fill:#ffd77c;stroke:#ffab50;stroke-width:1px;"/><circle cx="433.11" cy="353.92" r="27.19" style="fill:#ffd77c;stroke:#ffab50;stroke-width:1px;"/><circle cx="433.11" cy="353.92" r="21.55" style="fill:#ffd77c;stroke:#ffab50;stroke-width:1px;"/><circle cx="433.11" cy="353.92" r="16.42" style="fill:#ffd77c;stroke:#ffab50;stroke-width:1px;"/><circle cx="433.11" cy="353.92" r="9.23" style="fill:#ffd77c;stroke:#ffab50;stroke-width:1px;"/><path d="M360.6,346l113.29,0l-0,5.32c-0,21.943 -18.057,40 -40,40l-33.29,0c-21.943,0 -40,-18.057 -40,-40l0,-5.32Z" style="fill:#399759;fill-rule:nonzero;"/><path d="M463.67,345.99c-0.609,24.42 -20.862,44.177 -45.29,44.18l-22.49,0c3.281,0.749 6.635,1.132 10,1.14l22.66,0c0.007,0 0.013,0 0.02,0c24.862,0 45.32,-20.458 45.32,-45.32l0,0l-10.22,0Z" style="fill-opacity:0.1;fill-rule:nonzero;"/></g><g id="chairs"><rect x="152.17" y="503.59" width="11.89" height="108.18" style="fill:#40414d;"/><rect x="246.08" y="503.59" width="11.89" height="108.18" style="fill:#40414d;"/><path d="M267.49,485.76c0,7.22 -24.48,13.08 -54.68,13.08c-30.2,0 -53.49,-5.85 -53.49,-13.08c0,-7.23 23.29,-13.08 53.49,-13.08c30.2,0 54.68,5.89 54.68,13.08Z" style="fill:#f6c6cd;fill-rule:nonzero;"/><path d="M142.66,485.75l124.82,0l0,10.9c0,5.76 -4.74,10.5 -10.5,10.5l-96.32,0c-9.875,0 -18,-8.125 -18,-18l-0,-3.4Z" style="fill:#40414d;fill-rule:nonzero;"/><path d="M121.463,360.671l2.575,-0.582c3.746,-0.845 7.524,1.541 8.37,5.287l31.174,138.105l-3.902,0.881c-6.774,1.529 -13.607,-2.787 -15.137,-9.562l-28.386,-125.756c-0.846,-3.745 1.541,-7.524 5.287,-8.369c0.006,-0.002 0.013,-0.003 0.019,-0.004Z" style="fill:#40414d;fill-rule:nonzero;"/><rect x="672.43" y="505.51" width="11.89" height="108.18" style="fill:#40414d;"/><rect x="578.52" y="505.51" width="11.89" height="108.18" style="fill:#40414d;"/><path d="M569.02,487.68c0,7.22 24.48,13.08 54.68,13.08c30.2,0 53.49,-5.85 53.49,-13.08c0,-7.23 -23.3,-13.11 -53.49,-13.11c-30.19,0 -54.68,5.89 -54.68,13.11Z" style="fill:#f6c6cd;fill-rule:nonzero;"/><path d="M675.83,509.08l-96.32,0c-5.76,0 -10.5,-4.74 -10.5,-10.5l-0,-10.9l124.82,0l-0,3.4c-0,9.875 -8.125,18 -18,18Z" style="fill:#40414d;fill-rule:nonzero;"/><path d="M676.827,506.281l-3.901,-0.88l31.178,-138.125c0.846,-3.746 4.624,-6.133 8.37,-5.287l2.575,0.581c3.746,0.846 6.132,4.624 5.287,8.37l-28.391,125.775c-1.528,6.768 -8.348,11.083 -15.118,9.566Z" style="fill:#40414d;fill-rule:nonzero;"/></g><g id="Man"><path d="M681.06,445.57l3.51,-1.11c-0,0 -6,-40.08 -5.94,-76l-0,-3.1c0.07,-2.24 0.15,-4.46 0.26,-6.63c0.14,-2.78 0.17,-5.43 0.15,-8c0.33,-34.59 -13.3,-49.2 -13.3,-49.2c-0,0 -16,-22.82 -25.59,-27.26c-0.83,-2.6 -1.78,-5.94 -2.62,-9.82c0.31,-0.21 0.61,-0.42 0.9,-0.64c3.961,-2.938 7.75,-6.1 11.35,-9.47c4.92,-4.61 9.64,-10.23 9.38,-16.57c0.027,-0.617 0.007,-1.236 -0.06,-1.85c-0.91,-7.65 -8.86,-13.41 -12.07,-20.66c-2.7,-6.09 -1.89,-12.87 -4.25,-19.05c-2.36,-6.18 -10.6,-11.93 -16.82,-8.68c-2.29,1.2 -3.67,3.32 -5.58,4.93c-4.74,4 -12.38,4.37 -18.86,2.55c-6.48,-1.82 -8.4,-9.24 -17.46,-9.26c0.804,0.27 1.573,0.636 2.29,1.09c-0.757,-0.127 -1.523,-0.194 -2.29,-0.2c3.758,1.189 6.477,4.493 6.92,8.41c-0.014,0.241 -0.041,0.482 -0.08,0.72c-3.62,1.95 -8.38,0.84 -12.72,0.77c-4.34,-0.07 -9.28,2.12 -8.85,5.67c-0.073,0.403 -0.073,0.817 -0,1.22c0.57,2.69 4.17,4.72 4.61,7.21l-0,0.2c-8.031,4.013 -16.72,6.547 -25.65,7.48c-0.29,-0 -0.16,0.35 0.26,0.86l-0.26,-0c-1.63,0.17 9.77,9.18 11.07,9.77c4.76,2.16 10.45,3.75 15.49,5.41l0.44,0.14c-1.698,3.945 -2.573,8.195 -2.57,12.49c-0,15.4 11.07,28.34 26.06,32c2.8,3.27 5.74,6.86 8.42,10.43l-0.19,0c-0,0 -17.23,22.92 -16.68,57.15c-0.049,4.29 0.178,8.579 0.68,12.84c-11.08,-0.63 -34.89,-3.55 -53,-16.81c-24.43,-17.87 -51.68,-12.51 -46,-1.79c5.68,10.72 34.77,19.65 39.46,20.55c0.44,0.08 1.46,0.32 2.92,0.68c-5.78,1.09 -9.74,3 -9.5,5.57c0.47,4.91 25.37,20.55 40.4,21.44c9.93,0.59 21.88,3.65 31.31,6.34c0.91,20.55 -4.06,26.71 -4.06,26.71c0,0 1.48,0.91 3.93,2.2l-1.05,3c-6.1,3.52 -13.62,7.19 -20.46,8.67c-8.716,1.791 -17.189,4.611 -25.24,8.4l-33.83,16.35c-6.135,2.847 -10.378,8.676 -11.2,15.39c-0.74,6.93 1.35,15.59 12.67,22.46c0.7,5.63 4.14,12.2 13.17,18.22c17.5,11.64 63.49,46.51 69.75,51.27c0.12,8.51 -1,25.58 -11.5,28.24c-13.16,3.34 -2.57,16 8.07,15.5c2.525,0.955 5.273,1.157 7.91,0.58c11.28,-2.68 52.62,-17 55.44,-38.42c0.117,-0.929 0.171,-1.864 0.16,-2.8c0.164,-3.651 -0.747,-7.271 -2.62,-10.41c0.441,0.968 0.799,1.971 1.07,3c-3.42,-7.8 -11.75,-12.7 -18.23,-15.46l0,-0.22c-1,-0.39 -2,-0.71 -2.82,-1c0.017,-0.58 -0.027,-1.159 -0.13,-1.73l-64.83,-44.67c0,0 28.19,-23.23 57.32,-19.65c29.13,3.58 33.77,-1.71 33.77,-1.71c0,0 14.94,-14.21 16.44,-30.57l0.94,-0.25c0,0 -0.07,-1.03 -0.21,-2.92Z" style="fill:url(#_Linear1);fill-rule:nonzero;"/><path d="M601.89,561.92c0,0 2.65,29.17 -10.61,32.71c-13.26,3.54 -0.88,17.68 9.72,15c10.6,-2.68 49.51,-16.8 52.16,-38c2.65,-21.2 -26.52,-28.29 -26.52,-28.29l-24.75,18.58Z" style="fill:#a59f35;fill-rule:nonzero;"/><path d="M601.89,561.92c0,0 2.65,29.17 -10.61,32.71c-13.26,3.54 -0.88,17.68 9.72,15c10.6,-2.68 49.51,-16.8 52.16,-38c2.65,-21.2 -26.52,-28.29 -26.52,-28.29l-24.75,18.58Z" style="fill-opacity:0.05;fill-rule:nonzero;"/><path d="M607.22,562.8c0,-0 2.65,29.17 -10.61,32.71c-13.26,3.54 -0.88,17.68 9.72,15c10.6,-2.68 49.51,-16.8 52.16,-38c2.65,-21.2 -26.52,-28.29 -26.52,-28.29l-24.75,18.58Z" style="fill:#a59f35;fill-rule:nonzero;"/><path d="M634.62,545.12l-24.73,18.57c0,0 0.11,1.26 0.18,3.27c9.34,-2.56 29.69,-9.36 30,-20c-1.778,-0.722 -3.598,-1.336 -5.45,-1.84Z" style="fill-opacity:0.1;fill-rule:nonzero;"/><rect x="608.54" y="290.95" width="10.61" height="7.96" style="fill:#f8bdc5;"/><path d="M608.99,419.57c0,0 -16.85,13.24 -30.69,16.38c-8.229,1.781 -16.206,4.572 -23.75,8.31l-31.83,16.18c-5.868,2.952 -9.845,8.698 -10.54,15.23c-0.91,9 2.71,20.84 24.31,27.88l68.07,56.58l21.22,-17.68l-72.49,-55.68l55.7,-34.48l-0,-32.72Z" style="fill:#758ac8;fill-rule:nonzero;"/><path d="M608.99,419.57c0,0 -16.85,13.24 -30.69,16.38c-8.229,1.781 -16.206,4.572 -23.75,8.31l-31.83,16.18c-5.868,2.952 -9.845,8.698 -10.54,15.23c-0.91,9 2.71,20.84 24.31,27.88l68.07,56.58l21.22,-17.68l-72.49,-55.68l55.7,-34.48l-0,-32.72Z" style="fill-opacity:0.1;fill-rule:nonzero;"/><path d="M599.26,360.35c0,-0 -32.71,0.88 -55.7,-16.8c-22.99,-17.68 -48.62,-12.38 -43.32,-1.77c5.3,10.61 32.71,19.45 37.13,20.33c4.42,0.88 68.07,18.57 68.07,18.57l-6.18,-20.33Z" style="fill:#f8bdc5;fill-rule:nonzero;"/><path d="M599.26,360.35c0,-0 -32.71,0.88 -55.7,-16.8c-22.99,-17.68 -48.62,-12.38 -43.32,-1.77c5.3,10.61 32.71,19.45 37.13,20.33c4.42,0.88 68.07,18.57 68.07,18.57l-6.18,-20.33Z" style="fill-opacity:0.05;fill-rule:nonzero;"/><path d="M602.8,411.63l-10.61,31.83c-0,0 -59.67,36.69 -64.54,41.55c-3.78,3.78 -8.84,18.57 8.84,30.94c17.68,12.37 66.3,51.28 66.3,51.28c-0,0 37.13,-8 34.48,-23l-61,-44.2c-0,-0 26.52,-23 53.93,-19.45c27.41,3.55 31.83,-1.77 31.83,-1.77c-0,-0 21.22,-21.24 14.14,-41.54c-7.08,-20.3 -73.37,-25.64 -73.37,-25.64Z" style="fill:#758ac8;fill-rule:nonzero;"/><path d="M589.54,267.57c0,0 30.06,32.71 28.29,42.43c-1.77,9.72 23.87,-28.29 23.87,-28.29c0,0 -8,-19.45 -6.19,-40.67l-45.97,26.53Z" style="fill:#f8bdc5;fill-rule:nonzero;"/><path d="M615.77,297.57c2.051,-2.165 4.21,-4.224 6.47,-6.17c4.523,-3.709 8.673,-7.853 12.39,-12.37c6.19,-8 29.17,26.52 29.17,26.52c0,0 14.14,15.91 12.38,53.93c-1.76,38.02 2.21,88.85 2.21,88.85l-5.35,1.49c-9.129,3.047 -19.18,1.619 -27.1,-3.85c-7.06,-4.88 -16,-10 -22.8,-10.46c-13.26,-0.88 -25.2,-8.4 -25.2,-8.4c0,-0 5.75,-13.7 -3.09,-57.91c-8.84,-44.21 13.69,-75.63 13.69,-75.63c0,0 1.78,9.62 7.23,4Z" style="fill-opacity:0.1;fill-rule:nonzero;"/><path d="M681.48,444.34l-5.3,1.77l-3.15,1.05c-9.129,3.048 -19.181,1.62 -27.1,-3.85c-7.05,-4.87 -16,-10 -22.8,-10.46c-13.24,-0.89 -28.24,-10.61 -28.24,-10.61c-0,-0 8.84,-11.49 -0,-55.7c-8.84,-44.21 13.7,-75.59 13.7,-75.59c-0,-0 1.78,9.57 7.23,3.94c2.046,-2.163 4.202,-4.219 6.46,-6.16c4.523,-3.709 8.673,-7.853 12.39,-12.37c6.19,-8 29.17,26.52 29.17,26.52c-0,-0 14.14,15.91 12.38,53.93c-0.19,4 -0.27,8.12 -0.28,12.29c-0.13,35.58 5.54,75.24 5.54,75.24Z" style="fill:#095623;fill-rule:nonzero;"/><path d="M631.09,357.7l0.88,19.45c0,0 -46.86,2.65 -56.58,-7.07c-9.72,-9.72 26.5,28.59 34.5,30.94c7.51,2.21 26.9,4.16 37.07,4.36c5.925,0.191 11.43,-3.148 14,-8.49c1.185,-2.577 1.569,-5.452 1.1,-8.25c-1.77,-11.49 0,-36.25 0,-36.25l-30.97,5.31Z" style="fill-opacity:0.1;fill-rule:nonzero;"/><path d="M631.09,355.93l0.88,19.45c0,0 -46.86,2.65 -56.58,-7.07c-9.72,-9.72 -44.89,-7.57 -44.2,0c0.44,4.86 23.87,20.33 38,21.22c14.13,0.89 32.7,7.37 40.7,9.72c7.51,2.21 26.9,4.16 37.07,4.36c5.925,0.191 11.43,-3.148 14,-8.49c1.185,-2.577 1.569,-5.452 1.1,-8.25c-1.77,-11.49 0,-36.25 0,-36.25l-30.97,5.31Z" style="fill:#f8bdc5;fill-rule:nonzero;"/><path d="M641.7,299.35c-0,-0 -20.33,2.65 -17.68,32.71c2.65,30.06 6.19,32.71 6.19,32.71c-0,-0 30.06,-2.65 33.59,-3.54c3.53,-0.89 1.77,-33.59 1.77,-33.59c-0,-0 -0.89,-29.17 -23.87,-28.29Z" style="fill-opacity:0.1;fill-rule:nonzero;"/><path d="M641.7,298.47c-0,-0 -20.33,2.65 -17.68,32.71c2.65,30.06 6.19,32.71 6.19,32.71c-0,-0 30.06,-2.65 33.59,-3.54c3.53,-0.89 1.77,-33.59 1.77,-33.59c-0,-0 -0.89,-29.19 -23.87,-28.29Z" style="fill:#095623;fill-rule:nonzero;"/><path d="M634.18,260.01c-1.39,-7 1.46,-9.16 2.21,-18.12l-46,26.52c-0,0 5.27,5.74 11.26,13.11c2.677,0.677 5.429,1.013 8.19,1c12.05,0.05 18.64,-12.89 24.34,-22.51Z" style="fill-opacity:0.1;fill-rule:nonzero;"/><circle cx="608.98" cy="248.96" r="32.71" style="fill:#f8bdc5;"/><path d="M617.23,239.03c-5,3.18 -5.07,10.37 -1.85,15.35c3.22,4.98 8.77,8.27 14.11,11.37c1.55,0.9 3.26,1.83 5,1.63c1.338,-0.261 2.577,-0.887 3.58,-1.81c3.737,-2.916 7.303,-6.044 10.68,-9.37c4.86,-4.78 9.53,-10.67 8.77,-17.34c-0.86,-7.57 -8.34,-13.27 -11.36,-20.44c-2.54,-6 -1.78,-12.73 -4,-18.86c-2.22,-6.13 -10,-11.8 -15.82,-8.59c-2.15,1.18 -3.45,3.29 -5.25,4.88c-4.46,3.94 -11.65,4.33 -17.75,2.53c-6.1,-1.8 -7.91,-9.15 -16.42,-9.17c4.23,1.49 7.09,5.9 6.44,9.92c-3.41,1.93 -7.89,0.83 -12,0.76c-4.11,-0.07 -9,2.23 -8.29,5.93c0.62,3 4.95,5.23 4.31,8.23c-7.512,3.957 -15.701,6.468 -24.14,7.4c-1.53,0.17 9.19,9.08 10.41,9.67c4.47,2.14 9.84,3.71 14.57,5.35c12.85,4.43 26.01,6.01 39.01,2.56Z" style="fill-opacity:0.1;fill-rule:nonzero;"/><path d="M617.23,238.14c-5,3.18 -5.07,10.37 -1.85,15.35c3.22,4.98 8.77,8.27 14.11,11.37c1.55,0.9 3.26,1.83 5,1.63c1.338,-0.261 2.577,-0.887 3.58,-1.81c3.737,-2.916 7.303,-6.044 10.68,-9.37c4.86,-4.78 9.53,-10.67 8.77,-17.34c-0.86,-7.57 -8.34,-13.27 -11.36,-20.44c-2.54,-6 -1.78,-12.73 -4,-18.86c-2.22,-6.13 -10,-11.8 -15.82,-8.59c-2.15,1.18 -3.45,3.29 -5.25,4.88c-4.46,3.94 -11.65,4.33 -17.75,2.53c-6.1,-1.8 -7.91,-9.15 -16.42,-9.17c4.23,1.49 7.09,5.9 6.44,9.92c-3.41,1.93 -7.89,0.83 -12,0.76c-4.11,-0.07 -9,2.23 -8.29,5.93c0.62,3 4.95,5.23 4.31,8.23c-7.512,3.957 -15.701,6.468 -24.14,7.4c-1.53,0.17 9.19,9.08 10.41,9.67c4.47,2.14 9.84,3.71 14.57,5.35c12.85,4.44 26.01,5.99 39.01,2.56Z" style="fill:#916168;fill-rule:nonzero;"/><path d="M656.18,559.46c1.42,3.274 1.914,6.875 1.43,10.41c-2.65,21.22 -41.55,35.36 -52.16,38c-5.59,1.4 -11.68,-1.87 -14.23,-5.8c1.64,4.62 8.7,9.17 15.12,7.57c10.61,-2.65 49.51,-16.8 52.16,-38c0.579,-4.204 -0.236,-8.483 -2.32,-12.18Z" style="fill:#fff;fill-opacity:0.1;fill-rule:nonzero;"/></g><path d="M375.23,583.57c-0.79,-1.78 -4.89,-5.25 -24.66,-6c-13.54,-0.51 -18.15,-7.66 -19.4,-14.64c4.45,-0.58 7.93,-1.38 9.07,-2.49c0,0 -0.06,-0.32 -0.16,-0.89l0.16,-0.12c-0.865,-5.035 -1.316,-10.132 -1.35,-15.24c-0.026,-4.371 0.437,-8.732 1.38,-13c0.551,-2.822 0.782,-5.697 0.69,-8.57c0.11,-17 -5.86,-46.88 -5.86,-46.88l-0.82,-24.83c-0.168,-6.302 -3.777,-12.03 -9.39,-14.9c-1.964,-1.016 -4.139,-1.557 -6.35,-1.58c-2.211,-0.023 -31.34,-4.94 -59.55,-7.63c-2,-1.61 -9.05,-5.95 -25.21,-3.46l-9.3,-27.22c-0.075,-0.329 -0.129,-0.664 -0.16,-1c0.33,-3.46 2.64,-8.67 13.41,-9l2.25,2c0,-0 0.4,-0.79 1.07,-2c13.36,-0.15 86.14,-0.89 89.89,-0c4.13,1 40.31,-7.06 41.35,-8.06c14.06,-13.71 -41.35,-7.06 -41.35,-7.06c-5.45,0.89 -23.06,-0.17 -41.1,-1.64c8.93,-13.39 17.33,-58.84 17.33,-58.84c0,-0 32,-16.13 22.74,-25.2c-9.26,-9.07 -37.21,20.16 -37.21,20.16c0,-0 -11.37,33.27 -16.54,43.35c-2,4 -4.59,4.82 -6.9,4.36c1.05,-0.84 1.73,-1.34 1.73,-1.34c0,-0 -22.74,-18.15 -24.81,-25.2c-0.386,-1.155 -0.895,-2.265 -1.52,-3.31c-1.09,-6.39 -3,-12.68 -7.66,-16.87c-0.783,-0.84 -1.647,-1.601 -2.58,-2.27c-1.26,-0.9 -2.69,-1.68 -3.88,-2.66c0.67,-3.08 1.45,-6.28 2.26,-9.38c16.88,-2 30,-16 30,-33c-0.003,-2.564 -0.308,-5.118 -0.91,-7.61c5.125,0.337 10.068,-2.043 13,-6.26c3.41,-5.08 3.3,-12 0.44,-17.36c-1.182,-2.176 -2.732,-4.132 -4.58,-5.78c-2.947,-2.968 -6.541,-5.213 -10.5,-6.56c-3.43,-1.19 -7.22,-1.9 -9.94,-4.23c-1.216,-1.59 -2.321,-3.26 -3.31,-5c-1.141,-1.708 -2.484,-3.273 -4,-4.66c-5,-5.15 -12.06,-8.32 -19.25,-9.72c-8.76,-1.71 -17.81,-1.1 -26.72,-0.49c-3.33,0.23 -7.24,0.82 -8.74,3.72c-1.13,2.18 -0.39,4.79 -0.54,7.22c-0.47,7.73 -9.31,12 -17,13.87c-7.69,1.87 -16.86,3.49 -20.57,10.27c-3.37,6.12 -1,13.54 0.08,20.41c1.798,12.059 -0.882,24.369 -7.53,34.59c-3.38,5.17 -7.74,9.77 -10.41,15.32c-2.957,6.186 -3.644,13.219 -1.94,19.86c0.5,1.94 1.22,3.92 0.86,5.9c-0.409,1.633 -1.213,3.14 -2.34,4.39c-9.292,11.474 -22.968,18.558 -37.7,19.53c0.612,2.03 1.809,3.835 3.44,5.19c2.072,2.049 4.489,3.718 7.14,4.93c6.983,3.502 14.326,6.235 21.9,8.15c5.1,1.29 10.43,2.21 15.62,1.33c5.19,-0.88 10.25,-3.85 12.38,-8.55c1.24,-2.72 1.42,-5.8 2.52,-8.57c2.19,-5.54 7.62,-9.13 11.29,-13.88c-1.236,12.24 -1.82,24.538 -1.75,36.84l-0,10.54c-0,13.89 -1,23.47 -9.61,40.82c-1.026,1.824 -1.476,3.916 -1.29,6c-0.38,2.288 0.476,4.615 2.25,6.11c-0.6,3.461 -0.891,6.968 -0.87,10.48c-0.12,12.64 4.15,29.61 26.79,33.91l40.31,-2c-0,-0 56.85,-11.09 72.35,-3c2.626,0.559 4.523,2.895 4.53,5.58c-0.048,0.841 -0.179,1.675 -0.39,2.49c-0.432,2.62 -0.596,5.277 -0.49,7.93c-0.07,17 3.59,55.58 3.59,55.58l-0,16.36c-2.58,3.88 -5.76,9.62 -5.35,13.85l-0,0.28c-0,0.09 -0,0.25 0.06,0.37c0.06,0.12 -0,0.22 0.07,0.33c0.07,0.11 0.06,0.21 0.09,0.32c0.03,0.11 0.08,0.24 0.13,0.35c0.05,0.11 0.07,0.18 0.11,0.27c0.04,0.09 0.13,0.26 0.2,0.38l0.12,0.21c0.12,0.192 0.254,0.376 0.4,0.55c5.17,6 31,17.61 39.28,17.14c8.79,-0.5 38.24,1 39.28,-12.1c0.132,-0.391 0.107,-0.818 -0.07,-1.19Z" style="fill:url(#_Linear2);fill-rule:nonzero;"/><path d="M301.75,558.25c0,0 -12,15 -7,21c5,6 30,17.47 38,17c8.5,-0.5 37,1 38,-12c0,0 2,-6 -24,-7c-26,-1 -18,-28 -18,-28l-27,9Z" style="fill:#095623;fill-rule:nonzero;"/><path d="M158.75,432.25c0,-0 -12,41 24,48l39,-2c0,-0 55,-11 70,-3c0,-0 6,1 4,9c-2,8 3,62 3,62l0,18c0,0 34,0 38,-4c0,0 -3,-16 0,-29c3,-13 -5,-54 -5,-54l-0.79,-24.68c-0.119,-6.201 -3.591,-11.873 -9.06,-14.8c-1.892,-1.003 -3.998,-1.538 -6.14,-1.56c-2.142,-0.022 -68,-11 -92,-9c-24,2 -65.01,5.04 -65.01,5.04Z" style="fill-opacity:0.1;fill-rule:nonzero;"/><path d="M158.75,431.25c0,-0 -12,41 24,48l39,-2c0,-0 55,-11 70,-3c0,-0 6,1 4,9c-2,8 3,62 3,62l0,18c0,0 34,0 38,-4c0,0 -3,-16 0,-29c3,-13 -5,-54 -5,-54l-0.79,-24.68c-0.119,-6.201 -3.591,-11.873 -9.06,-14.8c-1.892,-1.003 -3.998,-1.538 -6.14,-1.56c-2.142,-0.022 -68,-11 -92,-9c-24,2 -65.01,5.04 -65.01,5.04Z" style="fill:#8b9cd1;fill-rule:nonzero;"/><path d="M261.75,350.25c0,0 8,10 13,0c5,-10 16,-43 16,-43c0,0 27,-29 36,-20c9,9 -22,25 -22,25c0,0 -11,61 -21,62c-10,1 -25,0 -25,0l-5,-11l8,-13Z" style="fill:#f8bdc5;fill-rule:nonzero;"/><path d="M261.75,350.25c0,0 8,10 13,0c5,-10 16,-43 16,-43c0,0 27,-29 36,-20c9,9 -22,25 -22,25c0,0 -11,61 -21,62c-10,1 -25,0 -25,0l-5,-11l8,-13Z" style="fill-opacity:0.05;fill-rule:nonzero;"/><path d="M225.75,300.25c0,0 18,21 20,28c2,7 24,25 24,25c0,0 -16,12 -13,18c3,6 -21,-20 -21,-20l-28,-41l18,-10Z" style="fill:#d3cb42;fill-rule:nonzero;"/><path d="M225.75,300.25c0,0 18,21 20,28c2,7 24,25 24,25c0,0 -16,12 -13,18c3,6 -21,-20 -21,-20l-28,-41l18,-10Z" style="fill-opacity:0.1;fill-rule:nonzero;"/><path d="M237.75,276.25c0,0 -9,29 -9,40c0,11 -38,-3 -37,-9c1,-6 22,-28 23,-37c1,-9 23,6 23,6Z" style="fill:#f8bdc5;fill-rule:nonzero;"/><path d="M207.75,296.25c0,0 -35,-9 -40,42c-5,51 4,57 -11,88c-15,31 102,4 102,4c0,0 -6,-7 -25,-4l-9,-27c0,0 -3,-12 14,-12c17,0 9,-35 9,-35c0,0 -9,-30 -14,-33c-5,-3 -14,-21 -26,-23Z" style="fill-opacity:0.1;fill-rule:nonzero;"/><path d="M207.75,294.25c0,0 -35,-9 -40,42c-5,51 4,57 -11,88c-15,31 102,4 102,4c0,0 -6,-7 -25,-4l-9,-27c0,0 -3,-12 14,-12c17,0 9,-35 9,-35c0,0 -9,-30 -14,-33c-5,-3 -14,-21 -26,-23Z" style="fill:#d3cb42;fill-rule:nonzero;"/><path d="M242.75,366.25c0,0 73,8 85,6c0,0 53.6,-6.6 40,7c-1,1 -36,9 -40,8c-4,-1 -89,0 -89,0l-1,-10l5,-11Z" style="fill:#f8bdc5;fill-rule:nonzero;"/><path d="M186.75,341.25l53,48c0,0 10,-20 13,-20c3,0 -36,-59 -36,-59c0,0 -10,-12 -16,-6c-6,6 -24,2 -14,37Z" style="fill-opacity:0.1;fill-rule:nonzero;"/><path d="M185.75,339.25l53,48c0,0 10,-20 13,-20c3,0 -36,-59 -36,-59c0,0 -10,-12 -16,-6c-6,6 -24,2 -14,37Z" style="fill:#d3cb42;fill-rule:nonzero;"/><circle cx="228.75" cy="261.25" r="33" style="fill:#f8bdc5;"/><path d="M257.65,252.96c5.6,2.21 12.46,-0.44 15.76,-5.47c3.3,-5.03 3.2,-11.88 0.42,-17.22c-2.78,-5.34 -7.92,-9.22 -13.59,-11.24c-3.44,-1.22 -7.27,-1.92 -9.91,-4.44c-1.67,-1.59 -2.66,-3.74 -3.91,-5.68c-4.67,-7.28 -13,-11.58 -21.47,-13.27c-8.47,-1.69 -17.23,-1.09 -25.85,-0.49c-3.22,0.23 -7,0.81 -8.46,3.69c-1.09,2.16 -0.38,4.75 -0.52,7.16c-0.45,7.67 -9,11.92 -16.47,13.76c-7.47,1.84 -16.13,3.57 -19.77,10.33c-3.26,6.07 -0.93,13.43 0.08,20.25c1.727,11.91 -0.856,24.054 -7.28,34.23c-3.27,5.13 -7.48,9.69 -10.07,15.2c-2.864,6.156 -3.528,13.113 -1.88,19.7c0.49,1.93 1.18,3.89 0.84,5.85c-0.392,1.611 -1.167,3.103 -2.26,4.35c-8.858,11.335 -22.121,18.397 -36.47,19.42c1.14,4.29 5.29,7 9.24,9c6.74,3.467 13.843,6.177 21.18,8.08c4.93,1.28 10.09,2.19 15.11,1.32c5.02,-0.87 9.91,-3.82 12,-8.48c1.2,-2.7 1.38,-5.75 2.44,-8.51c2.39,-6.19 8.76,-9.93 12.18,-15.62c3.27,-5.44 4.54,-6.08 5.37,-12.36c0.83,-6.28 2.66,-13.06 7.82,-16.75c5.4,-3.87 13,-3.13 19,-0.16c6,2.97 9.71,1.81 14.72,6.17c8.789,7.635 18.625,13.973 29.21,18.82c-1,-8.72 -2.61,-18.45 -9.69,-23.64c-2,-1.49 -4.53,-2.63 -5.59,-4.91c-1.69,-3.63 1.2,-8.06 -0.11,-11.85c-1.31,-3.79 -6.29,-5.19 -8.5,-8.63c-1.88,-2.92 -1.37,-6.89 0.39,-9.89c1.76,-3 4.54,-5.22 7.31,-7.32c2.46,-1.86 4.953,-3.677 7.48,-5.45c2.283,-1.449 4.333,-3.236 6.08,-5.3c1,-1.37 1.66,-4.37 3.05,-5.34c3.5,-2.42 8.88,3.42 12.12,4.69Z" style="fill-opacity:0.1;fill-rule:nonzero;"/><path d="M256.65,251.96c5.6,2.21 12.46,-0.44 15.76,-5.47c3.3,-5.03 3.2,-11.88 0.42,-17.22c-2.78,-5.34 -7.92,-9.22 -13.59,-11.24c-3.44,-1.22 -7.27,-1.92 -9.91,-4.44c-1.67,-1.59 -2.66,-3.74 -3.91,-5.68c-4.67,-7.28 -13,-11.58 -21.47,-13.27c-8.47,-1.69 -17.23,-1.09 -25.85,-0.49c-3.22,0.23 -7,0.81 -8.46,3.69c-1.09,2.16 -0.38,4.75 -0.52,7.16c-0.45,7.67 -9,11.92 -16.47,13.76c-7.47,1.84 -16.13,3.57 -19.77,10.33c-3.26,6.07 -0.93,13.43 0.08,20.25c1.727,11.91 -0.856,24.054 -7.28,34.23c-3.27,5.13 -7.48,9.69 -10.07,15.2c-2.864,6.156 -3.528,13.113 -1.88,19.7c0.49,1.93 1.18,3.89 0.84,5.85c-0.392,1.611 -1.167,3.103 -2.26,4.35c-8.858,11.335 -22.121,18.397 -36.47,19.42c1.14,4.29 5.29,7 9.24,9c6.74,3.467 13.843,6.177 21.18,8.08c4.93,1.28 10.09,2.19 15.11,1.32c5.02,-0.87 9.91,-3.82 12,-8.48c1.2,-2.7 1.38,-5.75 2.44,-8.51c2.39,-6.19 8.76,-9.93 12.18,-15.62c3.27,-5.44 4.54,-6.08 5.37,-12.36c0.83,-6.28 2.66,-13.06 7.82,-16.75c5.4,-3.87 13,-3.13 19,-0.16c6,2.97 9.71,1.81 14.72,6.17c8.789,7.635 18.625,13.973 29.21,18.82c-1,-8.72 -2.61,-18.45 -9.69,-23.64c-2,-1.49 -4.53,-2.63 -5.59,-4.91c-1.69,-3.63 1.2,-8.06 -0.11,-11.85c-1.31,-3.79 -6.29,-5.19 -8.5,-8.63c-1.88,-2.92 -1.37,-6.89 0.39,-9.89c1.76,-3 4.54,-5.22 7.31,-7.32c2.46,-1.86 4.953,-3.677 7.48,-5.45c2.283,-1.449 4.333,-3.236 6.08,-5.3c1,-1.37 1.66,-4.37 3.05,-5.34c3.5,-2.42 8.88,3.42 12.12,4.69Z" style="fill:#916168;fill-rule:nonzero;"/><g opacity="0.1"><path d="M327.61,557.13c0.075,-2.662 0.458,-5.306 1.14,-7.88l-0.5,0.17c-0.499,2.538 -0.714,5.124 -0.64,7.71Z" style="fill:#fff;fill-rule:nonzero;"/><path d="M332.75,594.25c-8,0.47 -33,-11 -38,-17c-0.657,-0.812 -1.06,-1.8 -1.16,-2.84c-0.296,1.703 0.124,3.456 1.16,4.84c5,6 30,17.47 38,17c8.5,-0.5 37,1 38,-12c0.075,-0.359 0.025,-0.733 -0.14,-1.06c-2.29,11.98 -29.57,10.57 -37.86,11.06Z" style="fill:#fff;fill-rule:nonzero;"/></g><rect x="372.25" y="295.75" width="1" height="41" style="fill:#ffd77c;stroke:#ffab50;stroke-width:0.25px;"/><rect x="373.25" y="295.75" width="1" height="41" style="fill:#ffd77c;stroke:#ffab50;stroke-width:0.25px;"/><rect x="374.25" y="295.75" width="1" height="41" style="fill:#ffd77c;stroke:#ffab50;stroke-width:0.25px;"/><rect x="375.25" y="295.75" width="1" height="41" style="fill:#ffd77c;stroke:#ffab50;stroke-width:0.25px;"/><rect x="376.25" y="295.75" width="1" height="41" style="fill:#ffd77c;stroke:#ffab50;stroke-width:0.25px;"/><rect x="377.25" y="295.75" width="1" height="41" style="fill:#ffd77c;stroke:#ffab50;stroke-width:0.25px;"/><rect x="378.25" y="295.75" width="1" height="41" style="fill:#ffd77c;stroke:#ffab50;stroke-width:0.25px;"/><defs><linearGradient id="_Linear1" x1="0" y1="0" x2="1" y2="0" gradientUnits="userSpaceOnUse" gradientTransform="matrix(2.61462e-14,-427,427,2.61462e-14,587.89,612.75)"><stop offset="0" style="stop-color:#808080;stop-opacity:0.25"/><stop offset="0.54" style="stop-color:#808080;stop-opacity:0.12"/><stop offset="1" style="stop-color:#808080;stop-opacity:0.1"/></linearGradient><linearGradient id="_Linear2" x1="0" y1="0" x2="1" y2="0" gradientUnits="userSpaceOnUse" gradientTransform="matrix(1.00935e-11,-164840,164840,1.00935e-11,108484,291779)"><stop offset="0" style="stop-color:#808080;stop-opacity:0.25"/><stop offset="0.54" style="stop-color:#808080;stop-opacity:0.12"/><stop offset="1" style="stop-color:#808080;stop-opacity:0.1"/></linearGradient></defs></svg>