<?xml version="1.0" encoding="UTF-8" standalone="no"?><!DOCTYPE svg PUBLIC "-//W3C//DTD SVG 1.1//EN" "http://www.w3.org/Graphics/SVG/1.1/DTD/svg11.dtd"><svg width="100%" height="100%" viewBox="0 0 130 130" version="1.1" xmlns="http://www.w3.org/2000/svg" xmlns:xlink="http://www.w3.org/1999/xlink" xml:space="preserve" xmlns:serif="http://www.serif.com/" style="fill-rule:evenodd;clip-rule:evenodd;stroke-linejoin:round;stroke-miterlimit:2;"><rect id="Artboard1" x="0" y="0" width="130" height="130" style="fill:none;"/><g><g><path d="M65,34.156l-46.364,38.222c0,0.054 -0.013,0.134 -0.04,0.242c-0.027,0.107 -0.041,0.185 -0.041,0.24l-0,38.704c-0,1.398 0.511,2.609 1.532,3.629c1.022,1.02 2.231,1.534 3.629,1.534l30.962,-0l0,-30.964l20.645,-0l-0,30.965l30.962,-0c1.397,-0 2.608,-0.513 3.628,-1.535c1.022,-1.019 1.534,-2.231 1.534,-3.629l0,-38.704c0,-0.214 -0.029,-0.376 -0.081,-0.482l-46.366,-38.222Z" style="fill:#fff;fill-rule:nonzero;"/><path d="M129.103,63.669l-17.658,-14.675l0,-32.899c0,-0.752 -0.241,-1.37 -0.727,-1.855c-0.481,-0.483 -1.099,-0.725 -1.853,-0.725l-15.482,0c-0.752,0 -1.371,0.242 -1.855,0.725c-0.483,0.485 -0.725,1.103 -0.725,1.855l0,15.724l-19.674,-16.45c-1.718,-1.398 -3.761,-2.097 -6.127,-2.097c-2.365,0 -4.408,0.699 -6.128,2.097l-57.978,48.3c-0.537,0.43 -0.832,1.008 -0.887,1.733c-0.054,0.726 0.134,1.359 0.564,1.896l4.999,5.967c0.431,0.484 0.995,0.78 1.694,0.888c0.645,0.054 1.291,-0.135 1.936,-0.564l55.798,-46.528l55.799,46.527c0.431,0.375 0.995,0.563 1.694,0.563l0.242,-0c0.698,-0.107 1.26,-0.404 1.693,-0.887l5,-5.966c0.43,-0.538 0.618,-1.171 0.562,-1.897c-0.055,-0.724 -0.35,-1.301 -0.887,-1.732Z" style="fill:#fff;fill-rule:nonzero;"/></g></g></svg>