<?xml version="1.0" encoding="UTF-8" standalone="no"?><!DOCTYPE svg PUBLIC "-//W3C//DTD SVG 1.1//EN" "http://www.w3.org/Graphics/SVG/1.1/DTD/svg11.dtd"><svg width="100%" height="100%" viewBox="0 0 130 130" version="1.1" xmlns="http://www.w3.org/2000/svg" xmlns:xlink="http://www.w3.org/1999/xlink" xml:space="preserve" xmlns:serif="http://www.serif.com/" style="fill-rule:evenodd;clip-rule:evenodd;stroke-linejoin:round;stroke-miterlimit:2;"><rect id="Artboard1" x="0" y="0" width="130" height="130" style="fill:none;"/><g><path d="M65,0c-35.88,0 -65,29.12 -65,65c0,35.88 29.12,65 65,65c35.88,0 65,-29.12 65,-65c0,-35.88 -29.12,-65 -65,-65Zm0,10c30.36,0 55,24.64 55,55c0,30.36 -24.64,55 -55,55c-30.36,0 -55,-24.64 -55,-55c0,-30.36 24.64,-55 55,-55Z" style="fill:#fff;fill-rule:nonzero;"/><path d="M74.998,36.251c0,6.171 -5.078,11.25 -11.249,11.25c-6.172,-0 -11.25,-5.079 -11.25,-11.25c-0,-6.172 5.078,-11.251 11.25,-11.251c6.171,0 11.249,5.079 11.249,11.251Z" style="fill:#fff;fill-rule:nonzero;"/><path d="M75.665,95.96c-0.069,2.73 1.211,3.5 4.327,3.82l5.008,0.1l0,5.12l-39.073,-0l0,-5.12l5.503,-0.1c3.291,-0.1 4.082,-1.38 4.327,-3.82l0,-30.813c0.035,-4.879 -6.296,-4.113 -10.757,-3.968l0,-5.074l30.665,-1.105" style="fill:#fff;fill-rule:nonzero;"/></g></svg>