<?xml version="1.0" encoding="UTF-8" standalone="no"?><!DOCTYPE svg PUBLIC "-//W3C//DTD SVG 1.1//EN" "http://www.w3.org/Graphics/SVG/1.1/DTD/svg11.dtd"><svg width="100%" height="100%" viewBox="0 0 382 382" version="1.1" xmlns="http://www.w3.org/2000/svg" xmlns:xlink="http://www.w3.org/1999/xlink" xml:space="preserve" xmlns:serif="http://www.serif.com/" style="fill-rule:evenodd;clip-rule:evenodd;stroke-linejoin:round;stroke-miterlimit:2;"><path d="M347.445,0l-312.89,0c-19.084,0 -34.555,15.471 -34.555,34.555l-0,312.889c-0,19.085 15.471,34.556 34.555,34.556l312.889,0c19.085,0 34.556,-15.471 34.556,-34.556l0,-312.889c0,-19.084 -15.471,-34.555 -34.555,-34.555Zm-229.238,329.844c0,5.554 -4.502,10.056 -10.056,10.056l-42.806,0c-5.554,0 -10.056,-4.502 -10.056,-10.056l0,-179.441c0,-5.554 4.502,-10.056 10.056,-10.056l42.806,0c5.554,0 10.056,4.502 10.056,10.056l0,179.441Zm-31.459,-206.412c-22.459,0 -40.666,-18.207 -40.666,-40.666c0,-22.459 18.207,-40.666 40.666,-40.666c22.459,0 40.666,18.207 40.666,40.666c0,22.459 -18.206,40.666 -40.666,40.666Zm255.162,207.222c0,5.106 -4.14,9.246 -9.246,9.246l-45.934,0c-5.106,0 -9.246,-4.14 -9.246,-9.246l0,-84.168c0,-12.556 3.683,-55.021 -32.813,-55.021c-28.309,0 -34.051,29.066 -35.204,42.11l0,97.079c0,5.106 -4.139,9.246 -9.246,9.246l-44.426,0c-5.106,0 -9.246,-4.14 -9.246,-9.246l0,-181.061c0,-5.106 4.14,-9.246 9.246,-9.246l44.426,0c5.106,0 9.246,4.14 9.246,9.246l0,15.655c10.497,-15.753 26.097,-27.912 59.312,-27.912c73.552,0 73.131,68.716 73.131,106.472l0,86.846Z" style="fill:#fff;fill-rule:nonzero;"/></svg>